<svg width="234" height="64" fill="none" xmlns="http://www.w3.org/2000/svg"><path d="M60.484 32.001c0-17.515 26.231-30.558 56.509-30.558 30.279 0 56.523 13.043 56.523 30.558 0 17.521-26.244 30.532-56.523 30.532-30.278 0-56.509-13.01-56.509-30.532z" fill="#fff"/><path fill-rule="evenodd" clip-rule="evenodd" d="M116.993 0C149.012 0 175 14.339 175 32.001 175 49.666 149.012 64 116.993 64 84.988 64 59 49.666 59 32.001 59 14.34 84.988 0 116.993 0zm0 2.886c-30.386 0-55.065 13.07-55.065 29.115 0 16.053 24.679 29.091 55.065 29.091 30.387 0 55.066-13.038 55.066-29.09 0-16.046-24.679-29.116-55.066-29.116zm-10.187 32.188H95.391c.135 2.782 1.713 4.071 4.075 4.071 1.754 0 2.955-.978 3.265-1.963h3.738c-.958 3.367-3.738 4.925-7.165 4.925-4.858 0-7.88-3.31-7.88-8.038 0-4.58 3.198-8.068 7.88-8.068 5.262 0 7.799 4.374 7.502 9.073zm-7.61-6.189c-2.375 0-3.59 1.565-3.778 3.567h7.408c-.284-2.137-1.188-3.567-3.63-3.567zm57.035 6.189h-11.415c.121 2.782 1.714 4.071 4.061 4.071 1.768 0 2.969-.978 3.279-1.963h3.738c-.958 3.367-3.738 4.925-7.165 4.925-4.871 0-7.88-3.31-7.88-8.038 0-4.58 3.198-8.068 7.88-8.068 5.262 0 7.799 4.374 7.502 9.073zm-7.623-6.189c-2.362 0-3.576 1.565-3.779 3.567h7.422c-.284-2.137-1.188-3.567-3.643-3.567zM71.454 41.693h4.237V32.59h9.148v9.102h4.237v-21.14H84.84v8.655h-9.148v-8.655h-4.237v21.14zm37.686 0h3.994v-8.264c0-3.103 1.107-4.374 3.401-4.374 1.969 0 2.86 1.241 2.86 3.752v8.886h3.98v-9.398c0-3.782-1.133-6.294-5.653-6.294-1.781 0-3.643.829-4.709 2.542h-.095v-2.128h-3.778v15.278zm17.636 0h3.98v-8.274l5.883 8.274h4.952l-6.477-8.573 5.735-6.705h-4.75l-5.343 6.587v-12.45h-3.98v21.14zm31.789 0h3.981v-21.14h-3.981v21.14z" fill="#EC1B23"/></svg>